<?xml version="1.0" encoding="utf-8"?>
<!-- Generator: Adobe Illustrator 24.3.0, SVG Export Plug-In . SVG Version: 6.00 Build 0)  -->
<svg version="1.1" id="Layer_1" xmlns="http://www.w3.org/2000/svg" xmlns:xlink="http://www.w3.org/1999/xlink" x="0px" y="0px"
	 viewBox="0 0 1210 1280" style="enable-background:new 0 0 1210 1280;" xml:space="preserve">
<style type="text/css">
	.st0{fill:#FFFFFF;}
</style>
<g transform="translate(0.000000,1280.000000) scale(0.100000,-0.100000)">
	<path class="st0" d="M7220,12785c-120-27-254-108-337-205c-82-94-143-262-143-389c1-168,61-314,179-432c90-90,124-109,318-185
		c677-264,1225-599,1758-1076c966-864,1633-2097,1819-3363c50-334,70-828,47-1135c-129-1733-1058-3219-2561-4095
		c-565-329-1232-556-1885-639c-416-53-918-46-1325,20c-1277,205-2393,925-3105,2004c-134,203-211,338-310,545
		c-212,440-344,877-409,1350c-59,431-44,938,39,1361c286,1444,1314,2606,2725,3077c219,73,469,129,760,169c150,21,711,17,870-5
		c819-117,1494-444,2045-992c581-578,934-1301,1026-2105c28-241,11-650-37-895c-98-502-304-951-610-1335c-95-119-339-361-464-460
		c-778-618-1761-806-2631-504c-777,270-1372,918-1574,1713c-49,195-59,281-59,521c0,242,10,332,61,525c149,575,552,1051,1090,1289
		c649,288,1380,148,1799-342c308-360,405-798,263-1186c-81-223-264-414-485-506c-99-41-217-62-301-54c-35,4-63,10-62,13
		c0,3,37,24,82,45c110,53,200,144,256,258c57,116,73,183,78,334c5,123,3,137-25,236c-112,393-511,621-972,554
		c-258-38-446-131-611-302c-222-231-329-502-330-831c0-211,46-407,142-612c227-481,668-809,1214-901c114-19,154-22,325-17
		c138,4,223,11,291,26c416,85,761,272,1064,576c403,402,625,945,625,1531c0,391-85,742-267,1103c-353,701-1013,1214-1783,1385
		c-240,53-315,61-615,60c-299,0-380-8-613-59c-941-208-1762-876-2164-1760c-487-1071-366-2313,326-3340c446-661,1089-1156,1846-1419
		c409-143,786-205,1238-206c480,0,888,69,1331,227c893,317,1646,920,2165,1733c99,156,276,503,343,675c163,416,256,818,294,1263
		c17,205,6,682-20,877c-62,460-181,893-355,1285c-337,759-847,1401-1507,1901c-1131,855-2630,1155-4044,809
		c-994-244-1885-764-2594-1514c-370-391-651-796-891-1281C75,7144-96,6068,55,4980c122-882,481-1777,1013-2525
		C2016,1122,3449,259,5060,51c296-39,411-45,765-45c528,0,892,42,1390,160c1558,370,2936,1332,3832,2674c533,799,883,1748,1002,2715
		c37,298,46,446,46,800c0,444-27,755-101,1160c-409,2242-1915,4155-3998,5074c-133,59-393,161-475,187
		C7452,12798,7297,12803,7220,12785z"/>
</g>
</svg>
