<?xml version="1.0" encoding="utf-8"?>
<!-- Generator: Adobe Illustrator 24.3.0, SVG Export Plug-In . SVG Version: 6.00 Build 0)  -->
<svg version="1.1" id="Layer_1" xmlns="http://www.w3.org/2000/svg" xmlns:xlink="http://www.w3.org/1999/xlink" x="0px" y="0px"
	 viewBox="0 0 1250 1280" style="enable-background:new 0 0 1250 1280;" xml:space="preserve">
<style type="text/css">
	.st0{fill:#FFFFFF;}
</style>
<g transform="translate(0.000000,1280.000000) scale(0.100000,-0.100000)">
	<path class="st0" d="M6535,11646c-819-93-807-92-835-114c-18-14-19-20-8-34c17-21,879-494,937-514c25-8,88-18,140-20
		c83-5,202,8,881,95c445,57,803,108,828,117c45,17,52,32,25,56c-22,18-923,461-973,478c-19,6-87,13-150,15
		C7284,11729,7147,11716,6535,11646z"/>
	<path class="st0" d="M4452,11414c-875-98-929-107-920-151c4-20,829-543,886-562c20-7,89-15,152-18c105-4,190,5,973,106
		c472,61,875,115,896,121c50,13,76,40,58,62c-6,9-213,127-459,262c-492,272-504,277-668,275C5323,11508,4910,11466,4452,11414z"/>
	<path class="st0" d="M2208,11165c-504-57-941-110-971-119c-58-17-83-37-74-60c5-13,252-201,663-504c200-147,176-147,1264-8
		c1017,131,1106,143,1140,161c41,21,52,38,37,58c-23,30-821,531-877,550C3275,11283,3201,11278,2208,11165z"/>
	<path class="st0" d="M7695,11030c-412-54-767-103-787-109c-20-7-44-19-53-27c-15-15-15-18,1-35c31-35,1022-571,1082-586
		c126-31,209-23,1032,101c426,64,790,119,808,122c43,8,83,40,75,61s-1056,539-1130,558C8613,11144,8489,11133,7695,11030z"/>
	<path class="st0" d="M1062,10893c-6-16-13-42-17-58c-3-17,26-452,65-967c73-968,80-1029,129-1126c21-41,83-101,506-486
		c143-130,268-236,277-236c21,0,44,33,53,76c9,45-101,1910-120,2022c-18,109-59,205-106,248c-77,70-738,554-756,554
		C1080,10920,1069,10910,1062,10893z"/>
	<path class="st0" d="M5600,10760c-459-60-858-114-887-120c-65-14-98-39-89-66c7-22,936-610,998-631c60-20,199-31,285-22
		c113,11,1761,258,1806,270c50,13,81,43,68,67c-5,9-240,144-521,300c-565,313-565,312-735,311C6474,10868,6076,10821,5600,10760z"/>
	<path class="st0" d="M3245,10456c-517-68-956-127-975-131s-52-16-72-26c-75-38-78-35,401-392c246-183,459-335,483-343
		c27-10,90-18,168-21c122-5,153,0,1129,146c1083,162,1096,165,1096,221c0,21-59,62-484,331c-266,169-502,312-525,319
		c-22,6-95,13-161,15C4196,10579,4097,10567,3245,10456z"/>
	<path class="st0" d="M9860,10463c-100-10-1632-245-1659-254c-17-6-36-20-42-31c-9-17-7-25,12-43c34-32,1122-626,1188-648
		c33-11,97-21,156-24c95-5,141,2,934,141c458,80,845,152,859,158c43,22,50,44,22,72c-36,34-1183,595-1250,611
		C10019,10460,9914,10468,9860,10463z"/>
	<path class="st0" d="M2050,10170c-11-11-22-31-25-45s-7-36-10-49s4-170,15-348c11-177,35-606,55-953c19-346,41-666,49-710
		c18-103,49-185,89-235c41-51,832-768,863-782c19-9,28-8,43,6c37,34,42,92,31,344c-14,330-27,660-50,1277c-11,292-25,557-31,590
		c-16,91-47,179-80,224c-19,27-183,156-469,371c-242,182-445,330-450,330C2074,10190,2061,10181,2050,10170z"/>
	<path class="st0" d="M7730,10144c-8-2-411-62-895-134c-947-142-967-146-973-201c-3-25,31-48,546-372c391-246,566-351,608-364
		c45-13,90-18,189-17c122,0,186,10,1020,158c490,86,907,161,928,167c41,11,77,40,77,62c0,8-8,21-17,30c-10,8-275,158-590,332
		c-630,348-625,346-793,344C7783,10148,7738,10146,7730,10144z"/>
	<path class="st0" d="M5395,9793c-16-2-462-69-990-149c-528-79-984-151-1014-160c-50-14-101-51-101-73c0-6,12-22,28-35
		c74-66,979-730,1015-746c66-29,170-43,276-37c57,3,514,79,1124,186c1066,187,1097,194,1112,242c4,10,2,26-4,36
		c-14,26-1073,695-1134,716C5655,9791,5460,9804,5395,9793z"/>
	<path class="st0" d="M11280,9673c-266-43-1569-277-1606-288c-88-26-162-107-199-216c-15-44-165-1862-165-1998c0-79,21-126,69-158
		c47-32,82-29,272,17c90,21,438,105,773,185s624,153,642,161c70,33,149,142,168,229c3,17,55,451,116,965c79,675,107,945,101,971
		C11430,9634,11362,9686,11280,9673z"/>
	<path class="st0" d="M3199,9316c-35-17-48-67-48-193c-1-133,66-1932,74-2017c9-84,50-206,88-261c17-25,253-246,522-491
		c464-421,492-444,525-442c27,2,38,10,55,38c18,32,20,50,18,185c-19,1573-25,1997-33,2081c-6,60-19,128-33,166
		c-51,142-33,125-595,546c-284,214-524,391-533,394C3230,9326,3212,9323,3199,9316z"/>
	<path class="st0" d="M8415,9170c-1218-217-1099-193-1159-233c-66-44-130-136-146-210c-15-71-82-2095-70-2135c26-91,84-137,170-136
		c73,1,1759,405,1818,435c24,12,63,44,87,71c83,93,78,52,161,1122c40,528,74,985,74,1016c-1,119-75,202-178,199
		C9152,9298,8811,9240,8415,9170z"/>
	<path class="st0" d="M5690,8689c-749-133-1018-184-1054-201c-70-32-132-97-169-176l-32-67l2-175c5-400,33-1882,37-1972
		c5-115,27-165,92-211c80-56,70-58,864,132c393,95,839,201,990,238c151,36,291,74,311,84c51,25,123,100,149,154c12,25,26,73,31,108
		c5,34,23,516,40,1071c33,1122,35,1065-34,1136c-44,45-85,60-159,59C6723,8868,6243,8787,5690,8689z"/>
	<path class="st0" d="M1236,8558c-23-33-21-92,29-756c25-328,52-691,60-807c18-236,27-291,63-388c24-66,39-84,384-450
		c197-210,368-386,380-392c16-7,24-4,39,14s19,40,19,96c0,168-101,1772-116,1835c-16,71-55,164-82,194c-49,55-734,676-746,676
		C1258,8580,1244,8570,1236,8558z"/>
	<path class="st0" d="M2194,7702c-42-28-42-79-9-639c13-230,36-612,50-848c27-456,35-517,89-623c26-52,834-917,865-927
		c10-3,26-3,34,1c41,15,42,46,8,916c-40,1054-43,1096-75,1191c-14,40-35,91-47,112c-24,41-873,825-892,825
		C2210,7710,2200,7706,2194,7702z"/>
	<path class="st0" d="M10265,7065c-412-100-770-188-795-196c-64-19-160-116-188-190c-18-48-30-181-92-954c-39-494-69-914-65-933
		c4-21,21-50,40-69c28-28,40-33,82-33c34,0,264,64,788,221c407,122,756,229,776,239c48,25,106,92,136,157c22,48,35,144,124,895
		c54,463,99,865,99,893c0,30-7,64-18,84c-21,38-74,71-112,70C11026,7249,10678,7166,10265,7065z"/>
	<path class="st0" d="M8095,6540c-473-115-875-216-893-225c-82-38-171-156-186-245c-3-19-20-455-37-968c-30-924-31-933-12-970
		c29-54,75-82,137-82c39,0,260,62,856,240c443,132,824,247,847,256c88,32,169,115,200,207c17,48,156,1828,147,1872
		c-16,79-75,126-156,124C8975,6749,8568,6655,8095,6540z"/>
	<path class="st0" d="M3280,6682c-13-10-25-36-30-60c-6-37,48-1664,64-1883c3-42,12-106,21-141c34-133,60-165,527-661
		c476-505,518-547,547-547c11,0,29,12,40,26c20,26,21,38,20,293c0,146-6,610-14,1031c-14,836-12,811-76,951c-37,81-48,92-604,601
		c-370,339-449,408-468,408C3304,6700,3292,6692,3280,6682z"/>
	<path class="st0" d="M1391,6401c-6-11-11-44-11-73c0-115,111-1547,125-1613c28-130,54-167,390-570c372-446,389-464,412-449
		c9,6,20,24,25,39c6,25-19,496-77,1440c-23,374-36,411-217,605c-448,482-596,635-615,638C1409,6420,1397,6414,1391,6401z"/>
	<path class="st0" d="M5702,5960c-740-180-996-246-1034-267c-94-51-168-160-176-261c-5-64,26-1864,34-1939c3-29,15-67,27-85
		c28-42,99-78,152-78c22,0,137,29,255,64c1233,368,1668,500,1699,515c77,40,164,157,176,238c13,87,63,1884,54,1919
		c-21,73-105,136-180,133C6696,6199,6243,6091,5702,5960z"/>
	<path class="st0" d="M2302,5415c-16-34-15-127,3-418c8-133,29-478,45-767c32-545,38-593,88-711c23-52,806-1000,843-1019
		c18-10,25-9,43,9c28,29,29-44-29,1420c-22,544-14,523-328,859c-122,131-309,331-416,445C2347,5450,2325,5466,2302,5415z"/>
	<path class="st0" d="M10018,4806c-444-135-754-234-782-250c-65-38-126-117-147-190c-5-17-39-397-74-845c-70-876-70-860-18-901
		c54-42,72-37,842,235c397,140,734,263,750,274c46,33,102,100,123,148c28,64,212,1614,197,1667c-14,51-61,86-112,85
		C10773,5029,10441,4934,10018,4806z"/>
	<path class="st0" d="M7965,4186c-456-139-844-259-861-268c-50-27-131-123-152-181c-18-47-22-123-47-856c-15-443-25-835-23-872
		c3-55,8-73,27-93c31-33,83-50,130-42c42,7,1602,556,1650,581c48,24,107,88,136,145c33,64,30,40,101,966c57,736,58,763,41,798
		c-23,48-70,76-127,75C8812,4438,8481,4343,7965,4186z"/>
	<path class="st0" d="M3360,4295c-24-29-28-89-19-317c64-1647,56-1529,108-1658c29-71,4-39,519-658c309-370,451-534,469-538
		c18-5,31-1,46,15c26,26,25-44,14,896c-11,872-17,996-51,1094c-14,41-37,93-51,116c-23,39-903,991-963,1042
		C3401,4314,3377,4316,3360,4295z"/>
	<path class="st0" d="M6605,3775c-5-2-415-126-910-275s-920-278-944-287c-62-24-155-113-186-178c-24-52-25-60-25-262
		c1-394,29-1589,38-1613c11-27,45-61,79-79c60-31,87-22,1013,304c491,173,912,326,935,339c56,33,112,97,141,161l24,53l27,862
		c27,858,27,862,8,898c-30,54-77,82-139,81C6638,3779,6611,3777,6605,3775z"/>
</g>
</svg>
