<?xml version="1.0" encoding="utf-8"?>
<!-- Generator: Adobe Illustrator 24.3.0, SVG Export Plug-In . SVG Version: 6.00 Build 0)  -->
<svg version="1.1" id="Capa_1" xmlns="http://www.w3.org/2000/svg" xmlns:xlink="http://www.w3.org/1999/xlink" x="0px" y="0px"
	 viewBox="0 0 489 489" style="enable-background:new 0 0 489 489;" xml:space="preserve">
<style type="text/css">
	.st0{fill:#FFFFFF;}
</style>
<g>
	<g>
		<path class="st0" d="M2.2,168.2L0.1,16.9C0,9.2,6.3,2.9,14,3l151.3,2.2c12.1,0.2,18.1,14.8,9.5,23.4l-42.1,42.1l70,70l-65,65
			l-70-70l-42.1,42.1C17.1,186.3,2.4,180.3,2.2,168.2z"/>
		<path class="st0" d="M421.3,136.6l42.1,42.1c8.6,8.6,23.2,2.6,23.4-9.5L489,17.9c0.1-7.7-6.2-14-13.9-13.9L323.8,6.2
			c-12.1,0.2-18.1,14.8-9.5,23.4l42,41.9l-70,70l65,65L421.3,136.6z"/>
		<path class="st0" d="M314.2,460.5c-8.6,8.6-2.6,23.2,9.5,23.4l151.3,2.2c7.7,0.1,14-6.2,13.9-13.9l-2.2-151.3
			c-0.2-12.1-14.8-18.1-23.4-9.5l-42.1,42.1l-70-70l-65,65l70,70L314.2,460.5z"/>
		<path class="st0" d="M14,485.1l151.3-2.2c12.1-0.2,18.1-14.8,9.5-23.4l-42.1-42l70-70l-65-65l-70,70l-42.1-42.1
			c-8.6-8.6-23.2-2.6-23.4,9.5L0,471.2C0,478.9,6.3,485.2,14,485.1z"/>
	</g>
</g>
</svg>
