<?xml version="1.0" encoding="utf-8"?>
<!-- Generator: Adobe Illustrator 24.3.0, SVG Export Plug-In . SVG Version: 6.00 Build 0)  -->
<svg version="1.1" id="Layer_1" xmlns="http://www.w3.org/2000/svg" xmlns:xlink="http://www.w3.org/1999/xlink" x="0px" y="0px"
	 viewBox="0 0 448 512" style="enable-background:new 0 0 448 512;" xml:space="preserve">
<style type="text/css">
	.st0{fill:#FFFFFF;}
</style>
<path class="st0" d="M130,66.1C130,47.8,112.4,33,90.6,33H43.4C21.6,33,4,47.8,4,66.1v39.8C4,124.2,21.6,139,43.4,139h47.2
	c21.8,0,39.4-14.8,39.4-33.1V66.1z M130,225.1c0-18.3-17.6-33.1-39.4-33.1H43.4C21.6,192,4,206.8,4,225.1v39.8
	C4,283.2,21.6,298,43.4,298h47.2c21.8,0,39.4-14.8,39.4-33.1V225.1z M161.5,66.1v39.8c0,18.3,17.6,33.1,39.4,33.1h47.2
	c21.8,0,39.4-14.8,39.4-33.1V66.1c0-18.3-17.6-33.1-39.4-33.1h-47.2C179.1,33,161.5,47.8,161.5,66.1z M287.5,225.1
	c0-18.3-17.6-33.1-39.4-33.1h-47.2c-21.8,0-39.4,14.8-39.4,33.1v39.8c0,18.3,17.6,33.1,39.4,33.1h47.2c21.8,0,39.4-14.8,39.4-33.1
	V225.1z M319,66.1v39.8c0,18.3,17.6,33.1,39.4,33.1h47.2c21.8,0,39.4-14.8,39.4-33.1V66.1c0-18.3-17.6-33.1-39.4-33.1h-47.2
	C336.6,33,319,47.8,319,66.1z M445,225.1c0-18.3-17.6-33.1-39.4-33.1h-47.2c-21.8,0-39.4,14.8-39.4,33.1v39.8
	c0,18.3,17.6,33.1,39.4,33.1h47.2c21.8,0,39.4-14.8,39.4-33.1V225.1z"/>
<path class="st0" d="M128.3,225.2c0-18.4-17.7-33.2-39.5-33.2H41.5C19.7,192,2,206.9,2,225.2v39.9c0,18.4,17.7,33.2,39.5,33.2h47.4
	c21.8,0,39.5-14.9,39.5-33.2V225.2z M128.3,384.9c0-18.4-17.7-33.2-39.5-33.2H41.5C19.7,351.6,2,366.5,2,384.9v39.9
	C2,443.1,19.7,458,41.5,458h47.4c21.8,0,39.5-14.9,39.5-33.2V384.9z M159.9,225.2v39.9c0,18.4,17.7,33.2,39.5,33.2h47.4
	c21.8,0,39.5-14.9,39.5-33.2v-39.9c0-18.4-17.7-33.2-39.5-33.2h-47.4C177.5,192,159.9,206.9,159.9,225.2z M286.1,384.9
	c0-18.4-17.7-33.2-39.5-33.2h-47.4c-21.8,0-39.5,14.9-39.5,33.2v39.9c0,18.4,17.7,33.2,39.5,33.2h47.4c21.8,0,39.5-14.9,39.5-33.2
	V384.9z M317.7,225.2v39.9c0,18.4,17.7,33.2,39.5,33.2h47.4c21.8,0,39.5-14.9,39.5-33.2v-39.9c0-18.4-17.7-33.2-39.5-33.2h-47.4
	C335.4,192,317.7,206.9,317.7,225.2z M444,384.9c0-18.4-17.7-33.2-39.5-33.2h-47.4c-21.8,0-39.5,14.9-39.5,33.2v39.9
	c0,18.4,17.7,33.2,39.5,33.2h47.4c21.8,0,39.5-14.9,39.5-33.2V384.9z"/>
</svg>
