<?xml version="1.0" encoding="utf-8"?>
<!-- Generator: Adobe Illustrator 24.3.0, SVG Export Plug-In . SVG Version: 6.00 Build 0)  -->
<svg version="1.1" id="Capa_1" xmlns="http://www.w3.org/2000/svg" xmlns:xlink="http://www.w3.org/1999/xlink" x="0px" y="0px"
	 viewBox="0 0 489 489" style="enable-background:new 0 0 489 489;" xml:space="preserve">
<style type="text/css">
	.st0{fill:#FFFFFF;}
</style>
<g>
	<g>
		<path class="st0" d="M200.6,40.5l2.1,151.3c0.1,7.7-6.2,14-13.9,13.9l-151.3-2.2c-12.1-0.2-18.1-14.8-9.5-23.4L70.1,138l-70-70
			l65-65l70,70l42.1-42.1C185.7,22.4,200.4,28.4,200.6,40.5z"/>
		<path class="st0" d="M354,73.9l-42.1-42.1c-8.6-8.6-23.2-2.6-23.4,9.5l-2.2,151.3c-0.1,7.7,6.2,14,13.9,13.9l151.3-2.2
			c12.1-0.2,18.1-14.8,9.5-23.4L419,139l70-70L424,4L354,73.9z"/>
		<path class="st0" d="M460.9,309.1c8.6-8.6,2.6-23.2-9.5-23.4l-151.3-2.2c-7.7-0.1-14,6.2-13.9,13.9l2.2,151.3
			c0.2,12.1,14.8,18.1,23.4,9.5l42.1-42.1l70,70l65-65l-70-70L460.9,309.1z"/>
		<path class="st0" d="M188.7,282.5l-151.3,2.2c-12.1,0.2-18.1,14.8-9.5,23.4l42.1,42l-70,70l65,65l70-70l42.1,42.1
			c8.6,8.6,23.2,2.6,23.4-9.5l2.2-151.3C202.7,288.7,196.4,282.4,188.7,282.5z"/>
	</g>
</g>
</svg>
