<?xml version="1.0" encoding="utf-8"?>
<!-- Generator: Adobe Illustrator 24.3.0, SVG Export Plug-In . SVG Version: 6.00 Build 0)  -->
<svg version="1.1" id="Layer_1" xmlns="http://www.w3.org/2000/svg" xmlns:xlink="http://www.w3.org/1999/xlink" x="0px" y="0px"
	 viewBox="0 0 1280 1280" style="enable-background:new 0 0 1280 1280;" xml:space="preserve">
<style type="text/css">
	.st0{fill:#FFFFFF;}
</style>
<g transform="translate(0.000000,1280.000000) scale(0.100000,-0.100000)">
	<path class="st0" d="M4897,12620c-190-40-636-181-877-278c-359-144-913-430-1017-526l-34-31l16-75c9-41,65-288,126-549
		c61-260,108-479,105-486c-3-8-70-68-150-134c-251-209-591-548-800-798c-63-76-124-144-136-151c-22-14-193,21-820,166
		c-192,45-299,66-307,59c-44-34-291-474-415-743c-133-285-274-682-372-1045c-31-114-56-213-56-222c0-17,163-124,635-417
		c171-106,316-198,324-205c12-12,11-44-5-217c-27-285-27-908-1-1113c10-77,21-162,23-190l5-50l-218-134c-338-209-747-463-756-471
		c-24-21,189-714,318-1035c128-317,410-859,514-984l27-33l555,132l554,132l35-43c332-401,561-636,874-898c158-132,190-166,183-196
		c-2-11-40-180-85-375c-44-195-97-433-118-529l-37-174l29-24c133-109,667-385,997-517c229-91,664-231,872-282l107-26l30,29
		c41,39,141,190,397,598c207,332,220,350,247,349c16-1,85-9,154-18c354-45,746-45,1144-2c127,14,230,25,231,23
		c31-54,565-913,582-936c24-32,29-33,72-28c131,17,638,177,951,302c351,139,811,370,1002,503c38,26,39,28,33,72
		c-3,25-61,278-129,563l-123,519l106,86c255,207,584,525,764,737c56,66,134,153,174,195l72,75l88-18c48-10,292-65,542-123
		c249-57,461-104,471-104c50,0,402,681,564,1093c113,286,262,774,272,892l6,60l-338,210c-406,252-560,353-597,393l-28,30l16,183
		c34,391,30,948-10,1214c-8,52-12,101-9,109c12,31,136,113,682,452l274,169l-6,65c-14,174-203,757-362,1116
		c-123,278-380,776-438,849l-22,28l-80-18c-79-17-426-98-833-194l-213-51l-21,27c-225,289-615,689-899,923c-98,80-177,150-178,157
		c0,7,49,227,109,490c146,638,140,608,130,625c-29,52-483,302-824,453c-358,159-959,356-1155,380l-55,6l-195-313
		c-231-371-406-637-426-645c-7-3-98,3-201,12c-386,34-842,29-1238-15c-39-4-78-3-87,2c-30,15-90,105-349,520
		c-138,222-258,411-267,421C5004,12643,5008,12643,4897,12620z M6635,10720c290-12,445-29,640-71c1067-225,2010-835,2651-1716
		c174-239,339-542,479-877c230-555,328-1047,328-1646c0-500-68-925-223-1390c-485-1457-1707-2537-3235-2859c-291-62-395-73-738-78
		c-349-6-593,6-789,38c-1411,229-2580,1079-3204,2329c-313,626-440,1126-460,1811c-19,629,70,1167,276,1684
		c200,500,418,874,709,1220c608,721,1401,1219,2299,1444C5785,10714,6107,10742,6635,10720z"/>
	<path class="st0" d="M8440,9046l-295-211l-75-213l-75-212l-499-499l-499-499l43-51c45-53,257-251,268-251c12,0,345,330,666,661
		l317,326l226,74l226,74l69,100c39,55,131,191,205,302l136,201l-37,45c-31,38-144,147-331,319l-50,46L8440,9046z"/>
	<path id="XMLID_1_" class="st0" d="M4421,8986c-23-24-23-28-10-52c8-15,138-154,289-309c280-287,329-348,317-396
		c-9-37-112-152-308-345c-186-182-248-234-285-234c-34,0-104,60-378,329c-261,254-329,308-360,282c-9-8-16-29-16-48
		c0-45,47-258,114-511l53-204l174-175c96-96,181-178,189-183c9-4,171-45,360-89l345-81l345-348c190-191,679-682,1088-1092l743-746
		l69-299c38-165,75-322,81-348c10-44,24-59,201-223c155-145,197-179,236-190c73-22,583-161,619-169c28-6,37-2,63,24
		c31,30,31,31,14,63c-9,18-130,147-268,288c-139,140-271,279-294,308c-53,67-55,101-10,163c48,67,448,465,488,484
		c48,24,101,22,147-6c21-13,163-146,315-296c172-168,288-275,305-279c21-6,31-2,46,17c27,34,21,73-73,429l-81,305l-186,187
		c-139,140-194,188-217,192c-17,3-172,39-343,79l-313,72L6789,6677L5697,7768l-73,304c-96,394-102,406-266,558
		c-68,63-144,133-169,158c-46,43-48,44-348,127c-165,47-322,87-348,91C4450,9011,4442,9009,4421,8986z"/>
	<path class="st0" d="M6254,7666l-89-85l658-658l658-658l95,100l94,100l-82,81c-813,799-1228,1204-1235,1204
		C6348,7750,6304,7712,6254,7666z"/>
	<path class="st0" d="M4529,5763c-355-357-676-686-713-733c-119-151-166-283-166-469c0-107,23-189,77-278c81-133,313-365,445-446
		c199-120,480-111,684,22c88,57,163,129,838,799l619,614l-114,114l-114,113l-260-253c-143-139-280-267-304-284c-80-58-172-37-216,49
		c-25,47-19,89,21,148c20,29,148,168,286,309l249,255l-117,118l-118,118l-45-41c-25-23-120-112-211-199c-372-353-405-372-492-291
		c-35,33-41,45-46,90c-3,41,0,58,19,89c12,21,115,133,228,248c113,116,231,237,263,270l58,60l-113,113l-113,112L4529,5763z"/>
</g>
</svg>
