<?xml version="1.0" encoding="utf-8"?>
<!-- Generator: Adobe Illustrator 24.3.0, SVG Export Plug-In . SVG Version: 6.00 Build 0)  -->
<svg version="1.1" id="Layer_1" xmlns="http://www.w3.org/2000/svg" xmlns:xlink="http://www.w3.org/1999/xlink" x="0px" y="0px"
	 viewBox="0 0 1280 1252" style="enable-background:new 0 0 1280 1252;" xml:space="preserve">
<style type="text/css">
	.st0{fill:#FFFFFF;}
</style>
<g transform="translate(0.000000,1252.000000) scale(0.100000,-0.100000)">
	<path class="st0" d="M6050,12513c-92-4-441-32-493-40c-34-5-41-12-64-57c-33-65-75-177-69-183c3-3,49,0,103,6c171,19,381,32,623,39
		l235,7l3,118l3,117l-133-2C6185,12517,6091,12515,6050,12513z"/>
	<path class="st0" d="M6555,12414c4-60,8-114,10-120c2-7,64-14,177-18c232-9,619-41,751-62c44-7,45-13-25,134c-36,75-55,103-71,107
		c-72,16-444,47-715,61l-133,6L6555,12414z"/>
	<path class="st0" d="M5129,12415c-266-46-558-112-589-134c-26-18-156-175-183-221l-17-27l58,14c213,52,517,111,715,139l128,19
		l22,50c11,27,38,83,59,123c32,61,36,72,21,71C5333,12449,5237,12433,5129,12415z"/>
	<path class="st0" d="M7586,12403c10-16,41-71,69-123l50-95l105-18c172-28,454-86,620-127c85-21,156-38,157-36c5,4-99,135-153,194
		c-59,63-60,64-159,88c-220,56-649,144-698,144C7572,12430,7576,12418,7586,12403z"/>
	<path class="st0" d="M4340,12238c-111-34-461-152-553-188c-91-35-117-51-175-104c-88-81-206-205-201-210c2-2,49,14,104,35
		c106,42,472,164,592,199c70,20,72,21,141,108c39,48,87,106,107,130C4394,12253,4394,12254,4340,12238z"/>
	<path class="st0" d="M8576,12158c34-35,86-94,116-132l55-69l229-77c201-67,367-129,498-185l39-17l-59,68c-32,37-98,102-146,144
		c-83,73-96,81-241,138c-145,58-390,144-501,177l-51,15L8576,12158z"/>
	<path class="st0" d="M5900,12199c-178-10-491-39-502-45c-17-10-125-410-114-421c3-3,86,1,183,10c173,16,435,31,756,43l157,6v142
		c0,77,3,171,7,209l6,67l-179-1C6116,12208,5974,12203,5900,12199z"/>
	<path class="st0" d="M6574,12093c3-65,9-161,12-214l6-96l211-6c219-7,486-26,710-52c71-8,139-15,152-15h24l-26,93
		c-13,50-42,147-64,213l-39,122l-93,11c-243,29-675,61-835,61h-64L6574,12093z"/>
	<path class="st0" d="M5010,12104c-174-28-453-83-607-120l-113-27l-47-81c-42-73-184-359-180-363c1-1,81,16,177,38
		c203,46,495,100,694,129c77,11,141,22,143,23c1,2,18,57,37,123c19,65,49,159,66,208c16,50,30,91,30,93
		C5210,12134,5149,12127,5010,12104z"/>
	<path class="st0" d="M7740,12101c0-5,8-29,18-53c11-24,43-115,72-203s54-162,56-164s80-16,174-32c221-37,476-90,668-137
		c83-20,152-35,152-32c0,13-138,279-185,357c-47,79-52,84-100,97c-142,42-457,110-687,150C7742,12113,7740,12113,7740,12101z"/>
	<path class="st0" d="M3364,11866c-206-100-362-186-429-236c-68-51-216-186-260-237l-35-42l87,51c93,53,327,172,453,229
		c66,30,92,51,217,177c79,78,142,142,140,142C3536,11949,3458,11912,3364,11866z"/>
	<path class="st0" d="M4055,11894c-171-51-394-125-547-182l-178-66l-79-110c-81-113-222-338-216-345c2-2,53,15,112,37
		c193,72,284,103,513,171l225,67l81,157c45,86,100,186,122,222c23,36,36,65,29,64C4110,11909,4083,11902,4055,11894z"/>
	<path class="st0" d="M9416,11848c32-28,97-90,144-139c81-83,92-91,250-169c141-70,330-173,420-228c41-26-108,124-209,209
		c-51,43-132,102-180,130c-92,56-462,249-476,249C9360,11900,9383,11877,9416,11848z"/>
	<path class="st0" d="M8813,11863c2-5,31-53,64-108s88-153,122-217c55-104,65-117,94-123c61-14,503-163,645-219c79-31,146-56,148-56
		c12,0-166,275-246,380c-55,73-64,80-137,110c-140,59-325,126-501,184C8828,11870,8805,11876,8813,11863z"/>
	<path class="st0" d="M6010,11663c-230-9-749-49-759-59c-8-8-132-656-126-662c1-2,49,2,106,7c266,27,867,60,1117,61h32v330v330
		l-147-2C6151,11667,6051,11665,6010,11663z"/>
	<path class="st0" d="M6597,11568c2-57,8-206,11-333l7-230l205-7c273-9,495-24,789-54c134-13,246-22,249-19c8,8-128,648-140,660
		c-5,5-370,43-518,55c-126,9-522,30-582,30h-27L6597,11568z"/>
	<path class="st0" d="M3038,11516c-144-67-319-158-426-221c-50-29-81-59-148-143c-79-100-244-334-244-346c0-3,55,24,123,60
		c135,72,302,153,446,217c86,38,96,45,125,92c59,97,189,291,233,348c24,31,40,57,36,57C3178,11580,3113,11551,3038,11516z"/>
	<path class="st0" d="M4970,11573c-14-2-110-18-215-34c-203-33-579-108-684-136l-64-18l-49-125c-59-152-192-539-187-545
		c2-2,31,3,64,11c207,48,662,131,940,170c66,9,121,17,122,18s22,98,47,216s59,268,74,333l29,117l-26-1
		C5007,11578,4984,11575,4970,11573z"/>
	<path class="st0" d="M2699,11486c-131-90-269-193-374-281c-92-77-255-230-255-239c0-4,47,30,105,74s160,116,228,161
		c73,49,154,114,201,161c43,44,110,106,148,139c38,32,65,59,61,59C2808,11559,2757,11526,2699,11486z"/>
	<path class="st0" d="M7923,11546c9-23,114-446,138-554c19-86,26-103,43-107c12-2,109-18,216-35c214-34,507-92,728-143
		c78-19,142-30,142-26c0,33-233,645-253,666c-22,21-539,134-837,183c-69,11-138,22-154,25C7925,11559,7919,11556,7923,11546z"/>
	<path class="st0" d="M9777,11454c65-87,165-234,218-321c33-56,35-57,187-128c138-65,401-204,474-251l29-19l-19,30
		c-102,162-308,426-359,460c-96,64-504,281-566,300C9721,11531,9727,11519,9777,11454z"/>
	<path class="st0" d="M10155,11430c44-40,109-103,145-140s113-99,171-138c130-88,366-278,388-312c13-20,8-19-24,10
		c-73,64-366,280-380,280c-3,0,33-48,80-107c47-60,123-161,168-226c75-109,90-124,177-185c119-82,323-237,340-257c7-8,16-15,21-15
		s-8,24-28,53l-37,52l38-35c41-38,88-99,66-85c-16,10-21,17,99-158c114-166,176-275,281-487c71-147,81-160,155-232
		c61-57,91-96,124-159l45-84l-84,77c-47,42-86,75-88,73c-2-1,9-31,23-65c64-152,178-476,220-629c17-58,23-67,78-110
		c34-25,96-77,138-114c71-63,80-75,103-140s24-68,19-27c-4,33-3,42,6,34c15-14,39-109,34-137c-2-12,16-101,41-198
		c40-157,92-416,111-554c4-27,14-57,21-66c11-12,44-154,44-188c0-2-7,0-16,3c-14,5-15-1-10-41c16-124,37-408,43-595
		c6-190,8-208,24-208c10,0,21-5,24-10c7-11,71-8,82,4c14,14-32,705-48,721c-4,3-5-16-3-42l3-48l-10,50c-5,28-7,69-4,92
		c8,55-24,248-85,513c-27,118-51,226-54,240c-32,170-75,316-88,297c-5-7-6-2-3,13c13,57-182,571-339,895c-152,314-313,591-504,865
		c-249,358-408,548-741,881c-308,308-514,485-761,654l-85,58L10155,11430z M10985,10712c-7-7-34,18-47,42c-8,16-3,14,21-8
		C10976,10730,10988,10714,10985,10712z M11171,10463c13-16,12-17-3-4c-17,13-22,21-14,21C11156,10480,11164,10472,11171,10463z
		 M11600,9967c65-89,27-58-46,38c-29,39-69,90-89,115c-24,29-16,23,23-18C11521,10068,11571,10007,11600,9967z M11800,9690
		c6-11,8-20,6-20c-3,0-10,9-16,20s-8,20-6,20C11787,9710,11794,9701,11800,9690z M12105,9096c21-48,29-73,19-65c-9,7-20,22-25,34
		c-5,11-13,27-18,35c-22,38-55,117-57,135c0,11-4,29-8,40C12006,9304,12063,9188,12105,9096z M12310,8535c0-5-5-3-10,5s-10,20-10,25
		c0,6,5,3,10-5S12310,8541,12310,8535z M12330,8485c0-5-5-3-10,5s-10,20-10,25c0,6,5,3,10-5S12330,8491,12330,8485z M12350,8435
		c0-5-5-3-10,5s-10,20-10,25c0,6,5,3,10-5S12350,8441,12350,8435z M12460,8135c0-5-5-3-10,5s-10,20-10,25c0,6,5,3,10-5
		S12460,8141,12460,8135z M12677,7233c-3-10-5-4-5,12c0,17,2,24,5,18C12679,7256,12679,7242,12677,7233z M12693,7160c4-30,3-38-3-25
		c-8,19-14,83-6,74C12686,7207,12690,7185,12693,7160z"/>
	<path class="st0" d="M3640,11290c-262-77-649-209-677-232c-25-20-208-412-291-624l-20-51l201,68c188,64,484,152,655,195
		c39,10,72,22,72,26c0,23,168,475,234,631c12,28,13,37,4,36C3811,11339,3731,11317,3640,11290z"/>
	<path class="st0" d="M9120,11291c0-5,15-42,33-82c44-97,129-314,182-464l43-120l63-18c233-66,458-137,627-197c108-39,197-68,199-67
		c14,14-275,637-309,664c-32,27-423,170-665,243C9111,11305,9120,11303,9120,11291z"/>
	<path class="st0" d="M2299,11099c-219-149-334-245-416-344c-84-103-263-346-263-358c0-4,46,28,103,71c56,44,165,121,241,171l140,92
		l82,122c46,67,121,170,168,230c47,59,85,107,83,107S2373,11149,2299,11099z"/>
	<path class="st0" d="M2665,10936c-77-34-227-107-334-161l-193-100l-45-75c-85-143-306-598-285-588c157,82,458,219,635,290l58,23
		l48,115c67,162,154,349,212,459c28,51,49,95,47,96C2806,10997,2742,10970,2665,10936z"/>
	<path class="st0" d="M10110,10944c0-2,42-89,93-192c52-103,122-252,156-332l63-145l130-54c71-30,221-100,334-156
		c112-56,204-100,204-97c0,14-209,431-267,534l-66,116l-126,70C10438,10795,10110,10957,10110,10944z"/>
	<path class="st0" d="M5795,10819c-145-7-450-30-630-47l-69-7l-8-40c-9-42-112-756-124-859l-7-58l39,6c154,23,692,55,1057,63l327,6
		v474v473l-212-1C6051,10828,5883,10823,5795,10819z"/>
	<path class="st0" d="M6626,10608c3-123,9-335,13-473l6-250l290-12c318-13,615-33,914-64c107-11,196-18,198-15c8,8-141,933-152,945
		c-22,21-940,91-1202,91h-74L6626,10608z"/>
	<path class="st0" d="M1749,10657c-174-172-367-403-519-620c-41-59-75-115-75-125c0-9-6-16-13-14c-8,1-11-2-8-7s-2-17-12-28
		c-9-10-13-13-8-6c19,29-4,11-25-19c-19-26-19-30-5-18c18,14,18,14,6-7c-8-12-17-20-21-17c-19,12-287-448-420-721
		c-139-285-299-697-344-885c-10-41-26-92-37-112c-10-21-15-38-11-38s2-5-5-12s-12-21-12-32c0-12-11-52-25-91c-13-38-24-79-24-90
		c1-12,5-6,10,14c13,43,21,35,10-10c-5-19-12-47-15-62c-4-15-10-25-15-23c-5,3-11-7-14-22c-86-404-114-587-99-630c11-33,4-152-9-152
		c-7,0-5,29,7,105c3,22,2,27-7,18c-27-27-77-741-51-744c4,0,22-2,39-5c18-2,33,1,33,6c0,6,15,10,34,10h34l6,63c3,34,8,142,11,239
		c5,170,29,473,41,531c6,31-2,34-34,11c-27-19-27-16-11,89c10,60,16,76,41,98c29,24,32,35,64,225c31,176,96,478,123,572
		c9,30,9,32-6,20s-16-10-9,15c5,20,3,27-5,22c-12-8-7,14,17,73c18,45,28,40,21-10c-5-37-2-33,19,27c55,157,127,346,130,343
		c2-2-13-53-31-112c-19-60-35-113-35-119c0-5,27,16,60,46s98,83,145,117c73,54,86,68,96,104c36,134,161,488,257,726
		c7,17-62-38-167-137c-77-70-78-68-13,42c43,74,65,98,169,190c82,72,83,74,172,251c48,99,120,235,160,303c39,69,71,129,71,135
		c1,6,18,34,38,63c20,28,64,89,96,135c84,117,172,232,234,306c30,35,52,66,49,68C1855,10758,1806,10714,1749,10657z M1248,10010
		c-13-23-39-53-58-68l-35-27l34,45c40,52,73,90,78,90C1269,10050,1260,10032,1248,10010z M825,9313c-34-59-54-81-30-33
		c22,44,46,80,52,80C850,9360,840,9339,825,9313z M715,9073c-61-180-105-292-116-299c-6-3-3,11,7,33c23,52,84,246,79,251
		c-2,2-11-10-20-27c-8-17-18-31-21-31s16,39,42,88c46,85,63,112,70,112C758,9200,739,9143,715,9073z M561,8693c-12-20-14-14-5,12
		c4,9,9,14,11,11C570,8714,567,8703,561,8693z M351,8159c-5-13-10-19-10-12c-1,15,10,45,15,40C359,8185,356,8172,351,8159z
		 M115,7199c-12-63-14-66-9-19c6,60,14,103,20,97C128,7276,123,7240,115,7199z"/>
	<path class="st0" d="M4755,10723c-265-35-735-118-985-176l-54-12l-19-60c-68-222-225-870-214-881c3-4,104,12,224,35
		c260,49,583,101,823,131c96,13,176,24,177,24c1,1,14,78,28,171c14,94,48,304,76,468s49,301,47,305
		C4856,10733,4810,10730,4755,10723z"/>
	<path class="st0" d="M8136,10638c52-266,96-510,124-678c18-107,34-197,36-199c1-1,92-16,201-32c270-39,453-71,747-130
		c137-27,250-48,251-47c7,10-161,664-217,845c-27,90-33,102-57,107c-14,3-86,19-160,36c-268,61-858,170-922,170
		C8124,10710,8123,10705,8136,10638z"/>
	<path class="st0" d="M1874,10509c-209-137-332-235-369-294c-67-105-305-557-305-579c0-3,51,31,113,74c61,44,169,114,239,156
		c71,42,132,82,137,88c4,6,32,63,60,126c52,113,166,334,236,458c20,34,34,62,32,62S1951,10559,1874,10509z"/>
	<path class="st0" d="M10890,10503c66-112,168-307,234-446l75-159l83-52c130-81,237-154,306-208c35-27,66-48,68-45
		c7,7-191,392-262,512c-55,92-69,107-169,188c-104,83-336,247-350,247C10871,10540,10878,10523,10890,10503z"/>
	<path class="st0" d="M3355,10445c-210-55-370-103-591-176l-182-61l-70-211c-87-260-219-707-209-707c1,0,56,16,122,35
		c178,53,436,121,649,170c104,24,190,46,192,47c2,2,41,154,88,338c46,184,103,395,125,469s40,135,38,136
		C3516,10487,3443,10468,3355,10445z"/>
	<path class="st0" d="M9443,10432c2-9,28-98,58-197c29-99,85-304,123-455l71-275l165-41c208-52,423-111,615-168c82-25,150-44,151-43
		s-27,103-62,227c-75,262-207,657-227,677c-24,25-519,188-806,267C9448,10446,9438,10447,9443,10432z"/>
	<path class="st0" d="M2265,10086c-189-78-357-155-460-209l-80-42l-33-85c-79-203-259-757-249-767c2-2,41,12,87,32
		c87,37,439,168,552,204l66,22l22,82c53,201,199,662,255,810c4,9,3,17-1,16C2419,10149,2348,10121,2265,10086z"/>
	<path class="st0" d="M10495,10084c29-67,190-560,231-706l49-177l184-66c101-37,252-95,335-130c83-34,152-61,154-60
		c10,9-139,467-220,680c-28,72-52,138-55,148c-7,21-261,151-488,249C10494,10105,10484,10108,10495,10084z"/>
	<path class="st0" d="M1505,9719c-55-33-162-101-237-151l-138-92l-30-72c-81-196-257-710-246-721c2-2,34,15,72,37
		c37,23,143,80,235,126c152,76,168,86,177,116c6,18,36,115,67,215c50,163,136,408,194,551c11,28,17,52,13,51
		C1608,9779,1560,9752,1505,9719z"/>
	<path class="st0" d="M11272,9719c3-8,24-59,46-114c54-137,134-369,191-557l47-156l130-68c71-37,172-93,224-124c52-32,96-57,97-56
		c8,8-137,438-213,630l-58,149l-91,67c-92,69-283,193-344,225C11276,9727,11268,9728,11272,9719z"/>
	<path class="st0" d="M5755,9629c-372-16-815-53-825-69c-7-12-59-465-95-825c-41-413-43-440-40-443c2-2,135,6,297,17
		c385,27,639,39,996,47l292,7v638v639l-222-2C6035,9638,5854,9633,5755,9629z"/>
	<path class="st0" d="M6655,9369c4-151,10-437,14-636c3-199,9-364,13-368s125-11,270-16c385-13,831-41,1211-76c57-5,67-4,67,10
		c0,83-137,1247-149,1259c-19,21-780,79-1229,94l-204,7L6655,9369z"/>
	<path class="st0" d="M4550,9529c-312-43-455-64-640-95c-264-43-473-83-482-92c-24-23-213-1210-196-1228c3-2,122,11,264,30
		c142,20,405,51,584,71s352,39,385,43l59,7l33,305c18,168,50,449,73,625c22,176,40,326,40,333C4670,9542,4646,9542,4550,9529z"/>
	<path class="st0" d="M8336,9511c-2-3,0-31,5-61c25-160,91-670,120-920c18-157,33-286,33-287c1,0,143-17,316-38
		c310-35,790-97,883-114c26-5,49-5,52-2c10,18-88,652-156,1008c-32,167-45,213-58,218C9414,9352,8345,9527,8336,9511z"/>
	<path class="st0" d="M3110,9283c-140-32-631-154-745-186l-120-34l-37-167c-63-290-142-733-163-923l-7-60l128,24
		c173,32,626,108,742,124c50,7,96,15,101,18c5,4,21,94,35,201c39,289,147,920,172,1003C3223,9304,3203,9304,3110,9283z"/>
	<path class="st0" d="M9750,9257c0-7,15-90,34-183c45-222,98-537,136-803c17-118,32-216,33-217s90-16,197-33c194-32,673-117,719-128
		c23-6,24-5,16,53c-24,201-128,762-188,1024l-13,55l-165,48c-90,26-292,79-449,118s-293,73-302,75C9757,9269,9750,9266,9750,9257z"
		/>
	<path class="st0" d="M1870,8946c-186-63-457-162-477-174c-22-13-120-472-173-802c-17-102-32-197-35-212c-2-16-1-28,3-28
		s102,22,217,49c116,27,270,62,343,77c115,24,133,30,137,48c2,12,14,86,25,166c36,250,142,808,176,923
		C2094,9019,2073,9015,1870,8946z"/>
	<path class="st0" d="M10846,8918c28-104,123-597,153-793c17-110,34-215,39-234l7-34l155-33c85-19,235-53,333-78l178-44l-5,27
		c-3,14-13,73-21,131c-36,237-87,497-146,743c-31,127-31,128-67,143c-149,64-596,224-627,224C10834,8970,10834,8961,10846,8918z"/>
	<path class="st0" d="M1148,8666c-136-62-328-162-345-179c-12-13-77-283-117-492c-24-121-76-422-76-437c0-3,44,9,98,27
		c53,19,158,52,232,73l135,40l7,43c51,333,90,539,149,797c23,96,39,176,37,178S1212,8695,1148,8666z"/>
	<path class="st0" d="M11647,8538c60-258,98-459,158-834c5-30,8-32,133-68c70-20,166-52,215-70c48-19,89-31,91-27
		c9,17-91,541-147,772l-33,134l-49,33c-52,34-345,185-381,196C11614,8680,11614,8676,11647,8538z"/>
	<path class="st0" d="M628,8377c-48-34-111-83-140-108l-54-47l-37-158c-57-245-134-650-125-660c2-1,46,19,98,45s114,54,138,63
		c36,14,42,20,42,46c0,70,110,628,163,830c8,28,11,52,8,52S676,8412,628,8377z"/>
	<path class="st0" d="M12134,8383c8-27,52-215,81-348c14-66,42-212,61-325c21-124,40-207,47-209s63-30,125-61c61-32,112-54,112-49
		c0,52-77,444-131,671l-31,127l-62,58c-58,55-187,153-201,153C12132,8400,12131,8392,12134,8383z"/>
	<path class="st0" d="M5890,8033c-484-16-1106-55-1119-69c-22-25-97-1538-79-1586c5-11,157-13,842-10l836,2v835v835l-202-2
		C6056,8037,5931,8035,5890,8033z"/>
	<path class="st0" d="M6685,7863c3-98,10-472,16-832c5-360,10-656,12-657c1-1,367-3,812-5l810-4l-3,225c-4,356-45,1132-68,1312
		c-7,57,13,52-274,73c-439,31-726,47-1123,61l-188,6L6685,7863z"/>
	<path class="st0" d="M4270,7929c-572-58-1068-113-1075-121c-5-5-34-328-50-563c-20-299-39-876-28-884c4-4,299-5,654-3l646,4l7,282
		c7,324,20,602,42,901c30,422,29,405,8,404C4464,7948,4372,7939,4270,7929z"/>
	<path class="st0" d="M8529,7926c-3-3,1-69,7-148c32-381,64-1015,64-1285v-133h398c218,0,502-3,631-7l234-6l-6,279
		c-4,153-11,358-17,454c-13,211-48,657-55,686c-3,15-15,24-37,28c-58,10-625,75-883,101c-137,14-268,27-291,30
		C8552,7928,8532,7928,8529,7926z"/>
	<path class="st0" d="M181,7764c0-11,3-14,6-6c3,7,2,16-1,19C183,7781,180,7775,181,7764z"/>
	<path class="st0" d="M2745,7754c-327-45-730-107-737-113c-19-16-66-664-75-1036l-6-260l479,3c263,2,485,5,492,7c9,3,12,52,12,197
		c0,265,32,833,60,1088c16,138,15,140-22,139C2930,7778,2839,7767,2745,7754z"/>
	<path class="st0" d="M9996,7638c33-324,64-873,64-1140v-148h313c171,0,384-3,471-7l159-6l-7,249c-10,353-56,1016-72,1033
		c-8,8-878,141-924,141C9986,7760,9985,7748,9996,7638z"/>
	<path class="st0" d="M1730,7599c-243-45-566-111-572-118c-21-20-66-620-70-939l-3-204l339,2c187,0,343,3,348,6c4,3,8,76,8,163
		c0,255,41,912,67,1074c3,20,2,37-3,36S1788,7609,1730,7599z"/>
	<path class="st0" d="M11075,7568c6-29,31-307,45-498c5-80,14-275,20-434c5-159,11-290,12-291c2-2,149-4,328-6l325-4l-3,175
		c-4,275-29,660-58,906l-6,50l-151,32c-195,42-465,92-495,92C11074,7590,11071,7586,11075,7568z"/>
	<path class="st0" d="M880,7421c-160-42-291-78-296-83c-13-13-51-515-60-801l-7-207l229,2l229,3l2,105c5,213,25,571,44,774
		c21,236,22,246,12,245C1028,7459,960,7441,880,7421z"/>
	<path class="st0" d="M11840,7433c0-4,4-46,10-93c18-156,39-463,45-635c3-93,8-216,11-272l6-103h213h212l-4,148
		c-9,340-47,818-66,839c-7,7-91,34-187,61C11872,7437,11840,7444,11840,7433z"/>
	<path class="st0" d="M376,7266c-59-24-114-50-121-57c-22-23-65-539-65-782v-109l124,4c69,2,128,7,132,11c5,4,12,116,16,248
		c6,208,17,361,45,662c5,54,3,67-8,67C491,7310,436,7290,376,7266z"/>
	<path class="st0" d="M12344,7238c21-214,37-426,41-578c3-96,8-212,11-257l6-83h120h121l-7,203c-6,181-23,427-42,606l-7,64l-81,37
		c-45,20-101,45-125,54l-44,17L12344,7238z"/>
	<path class="st0" d="M43,6164c-4-11-8-12-13-4c-4,7-13,9-20,5c-9-6-11-41-6-144c13-255,40-541,57-598c6-18,12-60,14-95
		c8-125,112-620,125-597c10,15,21-48,14-75c-3-12,4-47,16-77c11-30,23-72,26-93s16-61,30-87c13-27,24-56,24-66c0-35,120-371,200-563
		c138-328,300-636,498-948c46-72,88-130,92-127c5,3,12,0,16-6c4-8,3-9-4-5c-18,11-14-10,5-25c14-12,16-12,8,0c-5,10-4,12,4,7
		c6-4,9-11,6-16c-6-9,37-72,180-265c346-467,899-1002,1374-1328c188-130,204-137,86-40c-33,28-99,86-145,130c-47,44-128,108-180,143
		c-145,96-350,252-400,305c-38,40-28,34,60-34c91-70,305-221,350-246c12-7,12-4-1,11c-68,80-206,259-259,336c-61,89-70,98-180,168
		c-63,41-170,116-238,167c-67,51-122,90-122,87c0-17,223-308,288-376c20-21,31-38,26-38c-12,0-43,31-76,77c-13,18-77,99-143,180
		c-217,267-350,475-524,818c-77,153-79,155-172,238c-73,64-105,103-144,167c-28,46-52,89-54,94c-2,6,34-24,80-68
		c95-88,146-128,137-105c-70,163-154,386-208,548l-68,203l-94,70c-51,38-117,93-145,121c-29,28-53,49-53,46s11-39,25-79s23-75,21-77
		c-4-5-126,323-126,339c0,6-2,9-5,6c-3-2-1-26,4-52c12-64-12-45-33,27c-15,53-13,72,9,64c8-4,3,27-16,99c-34,126-101,440-125,584
		c-15,91-21,108-45,130c-23,20-31,41-44,109c-8,46-15,85-15,87c0,3,11-3,25-12s28-15,30-12c2,2,0,33-5,68c-17,123-41,425-48,605
		l-7,180l-35,5c-27,4-36,10-38,28C78,6183,52,6188,43,6164z M79,5476c4-31,4-56-1-56c-4,0-8,13-8,29s-3,44-6,62c-4,19-4,31,0,27
		C68,5535,75,5507,79,5476z M117,5303c-3-10-5-4-5,12c0,17,2,24,5,18C119,5326,119,5312,117,5303z M138,5200c0-22-1-22-8,5
		c-4,17-8,41-8,55c0,22,1,22,8-5C134,5239,138,5214,138,5200z M227,4628c-3-7-5-2-5,12s2,19,5,13C229,4646,229,4634,227,4628z
		 M568,3825c-3-3-9,2-12,12c-6,14-5,15,5,6C568,3836,571,3828,568,3825z M629,3695c0-5-11,10-24,35s-24,50-24,55c0,6,11-10,24-35
		S629,3701,629,3695z M745,3403c19-54,39-105,44-113c4-8,23-42,41-75c41-74,33-69-20,14c-47,73-103,181-97,187c3,3-6,40-19,82
		s-24,79-23,82C672,3589,709,3501,745,3403z M1288,2470c14-19,47-60,71-90c43-52,43-53,8-20c-20,18-71,79-113,135
		c-42,55-57,80-35,55C1242,2525,1273,2489,1288,2470z"/>
	<path class="st0" d="M12710,6155c0-17-5-25-18-25c-16,0-19-20-30-232c-11-209-30-432-48-569c-6-41-4-48,8-44c13,5,13-4,0-77
		c-8-46-20-90-28-98c-7-8-20-58-29-110c-32-185-67-347-105-485c-48-175-56-210-41-201c6,4,4-10-4-35c-8-23-15-51-15-63
		c0-11-12-39-26-61c-15-22-23-31-19-20c12,32,25,89,24,105c0,8-13-20-27-62c-31-88-70-134-212-248l-86-69l-67-201
		c-37-110-99-278-137-373c-38-94-67-173-65-175s35,27,74,63c39,37,71,65,71,62s-20-41-45-85c-31-56-67-101-114-144
		c-62-57-76-77-149-223c-90-178-144-271-206-354c-91-121-179-256-151-231c23,21,26,22,17,5c-6-11-30-38-54-60s-37-33-30-25
		c35,41,1,20-100-61c-62-50-165-126-229-169c-111-76-119-84-199-196c-46-64-124-167-174-227l-90-111l91,63c50,35,137,99,193,142
		c56,44,100,74,98,67c-6-18-201-174-343-274c-66-46-169-131-230-187c-60-56-126-115-145-131l-35-28l33,19c53,29,306,221,445,338
		c70,58,217,193,327,298c347,334,585,617,863,1023c97,142,108,162,85,148c-8-4-10-3-5,2s13,9,19,9c14,0,213,347,315,550
		c205,407,397,917,458,1215c2,8,28,125,59,260s58,254,61,265c14,64,35,239,31,253c-3,9-1,42,4,72l9,55l-2-47c-1-26,1-44,4-40
		c16,18,67,697,55,729c-8,19-34,16-39-4c-4-14-5-12-6,5C12749,6191,12710,6189,12710,6155z M12678,5278c-13-74-19-83-12-18
		c6,51,11,70,18,70C12686,5330,12683,5306,12678,5278z M12657,5178c-3-8-6-5-6,6c-1,11,2,17,5,13C12659,5194,12660,5185,12657,5178z
		 M12341,4083c-12-20-14-14-5,12c4,9,9,14,11,11C12350,4104,12347,4093,12341,4083z M12321,4033c-12-20-14-14-5,12c4,9,9,14,11,11
		C12330,4054,12327,4043,12321,4033z M12301,3983c-12-20-14-14-5,12c4,9,9,14,11,11C12310,4004,12307,3993,12301,3983z M12100,3440
		c-17-33-39-81-49-108c-32-79-73-164-77-159c-2,2,3,21,11,43c14,35,14,37,0,20c-19-25-20-7,0,21c8,12,26,43,40,70c14,26,30,55,35,63
		s21,36,35,63C12133,3520,12136,3511,12100,3440z M11531,2478c-17-24-72-86-122-138s-83-84-73-70c27,37,215,250,220,250
		C11559,2520,11547,2501,11531,2478z M11000,1837c0-2-17-19-37-38l-38-34l34,38C10992,1837,11000,1845,11000,1837z"/>
	<path class="st0" d="M12512,6120c-51-5-99-11-107-14c-12-4-15-28-15-120c0-133-14-357-36-571c-8-82-18-178-21-213l-6-62l84,35
		c46,20,102,47,125,60l41,24l12,103c19,164,39,429,47,606c6,155,6,162-12,161C12613,6128,12563,6124,12512,6120z"/>
	<path class="st0" d="M194,5964c8-191,20-345,42-560l17-162l46-23c50-25,225-99,228-96c1,1-5,52-12,112c-24,193-45,469-52,670
		c-3,108-9,198-13,200c-3,2-64,7-135,11l-128,7L194,5964z"/>
	<path class="st0" d="M12090,6098c-91-5-170-10-176-12c-7-3-13-75-17-208c-7-218-27-492-53-731c-9-81-14-150-11-153
		c8-8,406,106,425,122c18,14,72,682,72,886v108l-37-1C12272,6108,12181,6103,12090,6098z"/>
	<path class="st0" d="M525,5943c13-307,58-828,74-845c14-14,447-136,455-127c2,2-5,78-15,169c-25,223-47,525-55,756l-7,191l-171,6
		c-94,4-197,7-229,7h-59L525,5943z"/>
	<path class="st0" d="M11710,6082c-47-2-193-6-325-10l-240-7l-2-90c-8-295-36-721-69-1008c-8-77-13-141-10-144c6-7,548,105,647,133
		c17,5,36,155,64,506c18,212,34,611,26,618C11798,6083,11757,6084,11710,6082z"/>
	<path class="st0" d="M1084,5979c3-57,8-165,11-239c10-233,59-786,70-799c7-6,203-50,435-96c129-25,241-48,249-51c15-5,15-2-14,271
		c-22,216-44,538-51,776l-7,217l-121,6c-67,3-224,9-349,12l-229,7L1084,5979z"/>
	<path class="st0" d="M1930,5989c0-258,71-1205,91-1223c7-6,970-156,976-152c1,1-7,85-17,186c-36,352-70,886-70,1112v116l-37,6
		c-21,3-204,8-408,11c-203,3-407,8-452,11l-83,6V5989z"/>
	<path class="st0" d="M10520,6050c-135-4-293-8-351-9l-106-1l-7-202c-12-355-54-932-82-1152l-7-49l49,7c304,43,880,139,890,149
		c22,22,93,955,94,1230v37l-117-2C10818,6057,10655,6053,10520,6050z"/>
	<path class="st0" d="M3118,6023c-19-36,57-1266,88-1414l5-26l302-37c251-30,625-71,936-102l63-6l-6,49c-22,165-57,732-84,1348
		l-7,170l-370,6c-203,4-494,10-646,14S3120,6028,3118,6023z"/>
	<path class="st0" d="M9125,6019c-159-3-342-7-406-8l-117-1l-6-207c-13-390-46-920-77-1232c-5-57-8-105-6-107
		c10-10,1239,135,1251,147c5,5,32,255,46,421c17,197,39,572,46,791l7,207l-224-2C9516,6027,9285,6023,9125,6019z"/>
	<path class="st0" d="M4694,5899c3-57,8-189,11-294c8-281,54-1024,70-1151l6-40l247-17c136-10,326-22,422-27c198-11,910-31,919-26
		c3,2,5,371,3,818l-2,815l-618,6c-339,4-717,10-840,14l-224,6L4694,5899z"/>
	<path class="st0" d="M7260,5988c-300-5-547-12-550-14c-2-3-7-222-11-487s-10-629-14-809l-7-328h129c298,0,1413,69,1435,89
		c20,19,82,991,91,1444l2,117l-265-2C7924,5997,7560,5993,7260,5988z"/>
	<path class="st0" d="M12507,5048c-16-11-70-42-120-68l-91-47l-13-74c-37-208-88-456-128-619c-25-101-44-185-41-187
		c6-6,141,98,205,160l59,55l50,209c49,201,80,346,102,483c6,36,13,75,15,88C12552,5075,12543,5075,12507,5048z"/>
	<path class="st0" d="M287,5023c20-127,82-432,120-588l45-190l57-55c52-50,230-184,237-178c1,2-15,73-37,158
		c-39,152-116,524-139,669l-12,73l-72,33c-39,19-100,50-135,69c-34,20-64,36-66,36C284,5050,285,5038,287,5023z"/>
	<path class="st0" d="M12180,4888c-25-11-119-44-210-75c-91-30-168-58-172-62c-3-3-16-64-28-136c-33-197-86-459-136-664
		c-24-101-42-186-40-188c6-6,215,100,334,170c57,33,108,69,113,81c34,80,198,858,187,886C12226,4904,12205,4899,12180,4888z"/>
	<path class="st0" d="M630,4862c0-74,104-572,181-864c9-34,19-42,111-94c104-59,368-187,373-182c2,2-12,64-31,138
		c-45,181-109,487-144,693c-16,93-30,170-32,172s-97,35-213,73c-116,39-218,73-227,77C634,4880,630,4877,630,4862z"/>
	<path class="st0" d="M11404,4650c-144-37-289-72-321-79l-60-11l-27-173c-33-208-115-623-156-789c-34-136-34-138-20-138
		c38,0,635,230,656,252c12,14,84,304,128,518c24,115,86,465,86,483C11690,4724,11685,4723,11404,4650z"/>
	<path class="st0" d="M1200,4686c0-38,79-459,125-666c81-363,74-342,120-364c97-45,631-236,663-236c5,0-4,53-19,118
		c-46,187-106,483-144,714c-19,117-38,227-40,245c-7,37,3,33-180,73c-77,17-212,49-300,72C1191,4701,1200,4699,1200,4686z"/>
	<path class="st0" d="M10665,4485c-88-19-266-52-395-75c-320-56-340-60-340-70c0-80-174-1061-206-1162c-3-10,0-18,6-18
		c41,0,808,203,902,239c24,9,29,21,61,158c65,272,177,868,177,940C10870,4527,10865,4526,10665,4485z"/>
	<path class="st0" d="M2054,4478c3-13,22-122,41-243c54-328,163-847,181-865c26-23,948-259,962-245c2,1-19,117-47,256
		c-51,258-108,593-139,819l-17,124l-200,33c-286,47-560,97-763,139C2053,4500,2050,4497,2054,4478z"/>
	<path class="st0" d="M9595,4299c-160-26-741-103-939-125c-88-10-164-23-171-30s-15-48-19-91c-16-182-138-1096-151-1132
		c-5-11,6-13,57-7c180,18,941,149,1102,189l50,12l13,60c41,182,127,666,167,948c29,198,29,197,19,196C9718,4318,9661,4309,9595,4299
		z"/>
	<path class="st0" d="M3246,4268c2-13,15-104,29-203c55-384,160-962,179-982c10-10,363-77,647-122c187-30,582-82,586-77
		c3,2-5,69-16,148c-28,194-76,582-101,813c-34,317-25,283-73,290c-23,3-148,17-277,31c-252,27-603,72-817,104
		C3238,4295,3242,4295,3246,4268z"/>
	<path class="st0" d="M8190,4124c-31-6-525-45-755-59c-132-8-356-18-498-22c-173-4-260-10-262-17c-6-21-27-1237-22-1243
		c8-7,492,14,757,32c281,20,643,56,653,65c17,15,163,1229,149,1241C8208,4124,8198,4125,8190,4124z"/>
	<path class="st0" d="M4810,4075c0-56,74-754,115-1090c8-66,15-122,15-126c0-22,925-79,1283-79h157v625v625h-72
		c-272,1-991,34-1345,63l-153,12V4075z"/>
	<path class="st0" d="M11859,3736c-65-39-164-96-222-126l-105-55l-86-260c-48-143-114-327-146-409c-33-82-60-151-60-153
		c0-13,367,229,426,280c43,37,60,73,158,329c55,141,158,449,154,458C11976,3803,11923,3774,11859,3736z"/>
	<path class="st0" d="M880,3762c0-44,253-734,282-769c26-31,475-319,484-310c1,1-26,74-61,162s-98,266-140,395s-80,244-85,256
		s-40,36-91,61c-81,38-313,166-364,199C891,3765,880,3768,880,3762z"/>
	<path class="st0" d="M11340,3468c-68-32-380-156-514-204l-79-29l-42-147c-53-182-131-419-197-596c-27-74-48-135-46-137
		c6-6,353,151,511,230l157,80l59,150c66,168,121,323,176,495c20,63,41,128,46,144C11429,3510,11429,3510,11340,3468z"/>
	<path class="st0" d="M1470,3453c0-30,141-449,225-668l61-160l100-52c167-88,590-271,600-260c2,2-16,58-40,124
		c-51,138-172,510-214,658l-28,100l-159,56c-124,43-384,144-532,206C1476,3460,1470,3458,1470,3453z"/>
	<path class="st0" d="M10510,3159c-75-27-510-150-694-196l-149-38l-39-155c-46-184-157-575-193-679c-14-41-23-77-20-79
		c11-11,528,148,782,240l113,41l30,78c67,173,155,448,244,757C10602,3190,10599,3191,10510,3159z"/>
	<path class="st0" d="M2334,3123c85-296,127-434,185-603c106-311,67-266,298-343c251-83,683-207,721-207c5,0,1,26-10,58
		c-36,107-135,467-184,664l-49,197l-135,31c-185,43-526,133-684,181c-72,21-134,39-139,39C2333,3140,2331,3132,2334,3123z"/>
	<path class="st0" d="M9265,2839c-226-48-522-101-779-139c-109-16-202-33-206-37s-22-93-40-198c-17-104-54-303-81-441
		s-49-258-49-267c0-12,7-15,28-12c15,3,113,19,217,36c196,31,528,97,743,146l122,28l35,110c54,174,215,780,215,810
		C9470,2883,9460,2881,9265,2839z"/>
	<path class="st0" d="M11560,2833c-30-24-132-96-225-158l-170-113l-82-165c-71-144-153-295-234-431l-23-39l95,63
		c104,70,223,159,316,235c48,40,77,76,138,178c87,143,261,477,248,476C11619,2879,11590,2858,11560,2833z"/>
	<path class="st0" d="M3500,2834c0-43,224-890,240-908c28-30,1114-226,1135-204c2,2-14,106-36,231s-57,332-77,459l-37,233l-65,8
		c-287,35-871,130-1062,172C3526,2841,3500,2843,3500,2834z"/>
	<path class="st0" d="M1245,2809c24-77,295-565,330-594c109-90,464-339,473-331c1,2-29,59-68,127c-40,68-114,210-167,316l-94,192
		l-57,32c-66,37-317,201-381,250C1239,2832,1238,2833,1245,2809z"/>
	<path class="st0" d="M7880,2624c-289-33-901-74-1122-74h-118v-52c0-29-5-237-11-461s-9-410-7-412c6-7,450,13,683,30
		c215,16,566,53,574,60c10,10,151,854,151,905C8030,2643,8039,2643,7880,2624z"/>
	<path class="st0" d="M4974,2587c3-17,26-176,51-352s53-369,63-430l17-109l35-7c98-20,634-55,988-65l252-7v461v460l-72,6
		c-40,3-194,8-343,11c-148,2-337,9-420,15c-195,13-512,39-548,45C4971,2619,4969,2618,4974,2587z"/>
	<path class="st0" d="M10875,2409c-93-48-241-119-328-157l-159-70l-57-128c-78-174-139-299-205-421c-31-57-52-103-48-103
		c15,0,468,230,557,282c83,50,92,58,133,128c111,188,301,562,284,559C11048,2498,10969,2458,10875,2409z"/>
	<path class="st0" d="M1846,2427c12-39,184-378,251-494c35-62,77-121,91-132c70-49,639-327,649-317c1,1-44,94-100,207
		c-56,112-125,257-152,323c-46,108-53,120-85,133c-173,72-323,139-478,214C1864,2437,1840,2446,1846,2427z"/>
	<path class="st0" d="M10175,2099c-103-41-457-158-630-209c-99-29-185-58-191-64s-21-40-34-76c-37-105-155-398-194-484
		c-20-44-34-81-31-84c6-6,328,94,495,155c230,83,325,123,344,146c32,39,306,604,306,633C10240,2123,10226,2120,10175,2099z"/>
	<path class="st0" d="M2690,2061c0-32,278-619,303-639c13-11,323-124,452-165c157-50,398-117,403-112c3,2-7,31-21,62
		c-42,94-106,257-167,428c-54,148-60,161-87,167c-207,55-471,133-650,193c-123,41-225,75-228,75S2690,2066,2690,2061z"/>
	<path class="st0" d="M9119,1776c-16-16-674-147-909-182c-63-9-121-20-129-24c-12-6-143-493-168-621l-5-27l89,14
		c282,44,899,176,918,196c17,18,245,613,245,640C9160,1780,9127,1783,9119,1776z"/>
	<path class="st0" d="M3800,1735c0-22,109-333,171-490l61-154l106-25c301-70,922-179,922-162c0,3-18,76-39,163s-53,228-71,313
		s-35,158-39,161c-3,4-89,19-191,34c-250,36-539,88-747,134C3854,1735,3800,1743,3800,1735z"/>
	<path class="st0" d="M10550,1688c-94-56-339-183-467-242l-83-38l-84-127c-46-70-118-171-160-224l-76-97l38,15
		c63,27,354,179,466,245c80,47,121,78,164,127c89,100,307,395,290,393C10636,1739,10597,1716,10550,1688z"/>
	<path class="st0" d="M2250,1684c0-11,148-215,237-326c93-116,96-118,216-186c165-94,487-252,512-252c3,0-35,53-84,119
		c-48,65-116,163-150,219l-63,100l-96,42c-115,50-445,214-519,258C2274,1675,2250,1687,2250,1684z"/>
	<path class="st0" d="M7785,1535c-40-16-665-64-915-71c-107-3-209-7-226-10l-31-4l-7-228c-4-125-9-269-13-320l-6-93l129,6
		c381,18,695,42,899,68l90,12l26,105c15,58,45,193,68,300s44,205,46,218c5,19,1,22-22,21C7807,1539,7791,1537,7785,1535z"/>
	<path class="st0" d="M5140,1508c0-32,115-628,123-633c4-4,355-35,502-45c83-5,255-12,383-16l232-7v320v320l-222,7
		c-356,11-822,41-975,62C5150,1521,5140,1519,5140,1508z"/>
	<path class="st0" d="M9685,1279c-137-54-459-164-597-204l-56-16l-65-119c-36-65-92-161-125-214c-34-53-56-96-50-96
		c40,0,649,219,739,265c15,8,59,56,97,107c71,95,222,320,222,332C9850,1344,9842,1341,9685,1279z"/>
	<path class="st0" d="M3071,1277c22-42,197-302,243-362c41-53,55-63,129-92c170-69,693-241,702-231c2,2-14,31-35,64
		c-21,34-76,130-121,213c-79,147-82,151-123,162c-176,47-548,169-739,242C3060,1299,3060,1299,3071,1277z"/>
	<path class="st0" d="M10135,1156c-95-59-320-180-430-231c-75-35-104-57-175-127c-47-46-112-108-145-137l-60-52l160,80
		c242,120,403,217,512,308c87,73,225,204,213,203C10207,1199,10174,1180,10135,1156z"/>
	<path class="st0" d="M2741,1076c129-123,247-213,367-280c122-68,443-226,458-226c5,0-9,14-31,32s-87,78-145,134
		c-101,98-110,104-240,164c-136,62-268,130-392,202c-36,21-70,38-75,38C2679,1139,2705,1111,2741,1076z"/>
	<path class="st0" d="M8828,1005c-11-11-483-115-678-150c-113-20-222-39-243-43l-38-7l-53-155c-29-85-62-177-74-204s-21-51-19-52
		c16-16,830,156,889,187c36,19,261,429,236,429C8840,1010,8831,1008,8828,1005z"/>
	<path class="st0" d="M4090,965c0-11,115-235,167-326c54-95,57-97,102-107c25-5,129-28,231-50c156-35,419-82,588-106c23-3,42-2,42,2
		c0,5-14,49-31,98s-46,139-64,199c-29,98-35,110-56,113c-177,21-596,97-843,153C4084,973,4090,972,4090,965z"/>
	<path class="st0" d="M9295,749c-93-37-261-98-372-135c-201-66-203-67-240-113c-20-25-71-81-112-124c-42-43-69-76-61-73
		c8,2,60,19,115,36c134,42,325,111,459,166c86,35,126,59,185,109c83,70,207,192,200,198C9467,815,9389,786,9295,749z"/>
	<path class="st0" d="M7485,759c-171-20-505-45-737-55l-157-6l-5-37c-3-20-8-111-12-203c-5-144-4-168,8-168c142,0,642,37,863,63
		l100,12l23,65c31,86,102,322,102,338C7670,782,7679,782,7485,759z"/>
	<path class="st0" d="M3475,725c62-75,215-206,270-230c107-47,449-164,644-220c18-6,7,12-50,76c-41,46-89,103-106,125
		c-24,31-44,44-76,53c-138,34-450,140-702,237C3441,772,3447,760,3475,725z"/>
	<path class="st0" d="M5290,753c0-12,77-297,96-355c10-32,22-48,37-52c36-8,368-35,577-46c235-12,377-13,384-2c2,4,2,96-1,205
		l-6,197h-111c-221,0-743,32-928,56C5311,760,5290,759,5290,753z"/>
	<path class="st0" d="M8455,479c-119-33-413-97-575-124c-85-15-165-31-177-36c-12-4-29-23-37-41s-34-67-59-108s-44-76-42-78
		c9-9,439,78,653,132c126,31,136,36,178,77c43,42,142,159,158,187C8564,504,8541,502,8455,479z"/>
	<path class="st0" d="M4370,464c0-14,107-147,157-196l48-46l180-41c239-53,615-118,615-105c0,3-9,19-20,34c-11,16-37,64-57,107
		s-37,79-38,80c0,1-48,9-105,18c-237,37-711,130-766,152C4377,470,4370,469,4370,464z"/>
	<path class="st0" d="M7355,278c-172-19-554-47-695-51l-95-2l-9-108c-5-59-6-110-3-113c13-13,745,40,833,61c16,3,37,35,74,108
		c29,58,51,108,49,113S7440,288,7355,278z"/>
	<path class="st0" d="M5435,258c11-36,66-161,82-184c9-14,29-24,56-28c96-14,406-36,605-42l212-7v110v111l-137,6
		c-430,18-646,32-786,51C5431,280,5429,279,5435,258z"/>
</g>
</svg>
